HIERARCHY
ROOT Pelvis
{
	OFFSET 0.000000 0.941512 0.000000
	CHANNELS 6 Xposition Yposition Zposition Zrotation Yrotation Xrotation 
	JOINT Pelvis_L_Hip
	{
		OFFSET 0.000000 0.000000 0.000000
		CHANNELS 3 Zrotation Yrotation Xrotation
		JOINT L_Hip
		{
			OFFSET 0.062321 -0.080322 -0.016990
			CHANNELS 3 Zrotation Yrotation Xrotation
			JOINT L_Knee
			{
				OFFSET 0.093051 -0.381305 -0.029784
				CHANNELS 3 Zrotation Yrotation Xrotation
				JOINT L_Ankle
				{
					OFFSET -0.010371 -0.431000 -0.033614
					CHANNELS 3 Zrotation Yrotation Xrotation
					End Site #name: L_Foot
					{
						OFFSET 0.069299 -0.038670 0.119418
					}
				}
			}
		}
	}
	JOINT Pelvis_R_Hip
	{
		OFFSET 0.000000 0.000000 0.000000
		CHANNELS 3 Zrotation Yrotation Xrotation
		JOINT R_Hip
		{
			OFFSET -0.055334 -0.094904 -0.002373
			CHANNELS 3 Zrotation Yrotation Xrotation
			JOINT R_Knee
			{
				OFFSET -0.064207 -0.384370 -0.019592
				CHANNELS 3 Zrotation Yrotation Xrotation
				JOINT R_Ankle
				{
					OFFSET 0.025418 -0.419734 -0.065953
					CHANNELS 3 Zrotation Yrotation Xrotation
					End Site #name: R_Foot
					{
						OFFSET -0.057233 -0.039888 0.132134
					}
				}
			}
		}
	}
	JOINT Pelvis_Spine1
	{
		OFFSET 0.000000 0.000000 0.000000
		CHANNELS 3 Zrotation Yrotation Xrotation
		JOINT Spine1
		{
			OFFSET -0.005562 0.124093 -0.043360
			CHANNELS 3 Zrotation Yrotation Xrotation
			JOINT Spine2
			{
				OFFSET 0.012244 0.139499 0.029894
				CHANNELS 3 Zrotation Yrotation Xrotation
				JOINT Spine3
				{
					OFFSET -0.002556 0.056561 0.009225
					CHANNELS 3 Zrotation Yrotation Xrotation
					JOINT Spine3_Neck
					{
						OFFSET 0.000000 0.000000 0.000000
						CHANNELS 3 Zrotation Yrotation Xrotation
						JOINT Neck
						{
							OFFSET -0.005205 0.217920 -0.024551
							CHANNELS 3 Zrotation Yrotation Xrotation
							End Site #name: Head
							{
								OFFSET 0.002365 0.091850 0.046637
							}
						}
					}
					JOINT Spine3_L_Collar
					{
						OFFSET 0.000000 0.000000 0.000000
						CHANNELS 3 Zrotation Yrotation Xrotation
						JOINT L_Collar
						{
							OFFSET 0.072225 0.116603 -0.009480
							CHANNELS 3 Zrotation Yrotation Xrotation
							JOINT L_Shoulder
							{
								OFFSET 0.115937 -0.058643 -0.021018
								CHANNELS 3 Zrotation Yrotation Xrotation
								JOINT L_Elbow
								{
									OFFSET 0.021994 -0.254722 -0.024492
									CHANNELS 3 Zrotation Yrotation Xrotation
									End Site #name: L_Wrist
									{
										OFFSET 0.048810 -0.240214 0.103329
									}
								}
							}
						}
					}
					JOINT Spine3_R_Collar
					{
						OFFSET 0.000000 0.000000 0.000000
						CHANNELS 3 Zrotation Yrotation Xrotation
						JOINT R_Collar
						{
							OFFSET -0.073372 0.120704 -0.024611
							CHANNELS 3 Zrotation Yrotation Xrotation
							JOINT R_Shoulder
							{
								OFFSET -0.108089 -0.054969 -0.020504
								CHANNELS 3 Zrotation Yrotation Xrotation
								JOINT R_Elbow
								{
									OFFSET -0.033684 -0.260739 0.009889
									CHANNELS 3 Zrotation Yrotation Xrotation
									End Site #name: R_Wrist
									{
										OFFSET -0.067980 -0.232763 0.118463
									}
								}
							}
						}
					}
				}
			}
		}
	}
}
MOTION
Frames: 14
Frame Time: 0.041667
-0.069184 0.938015 1.576736 -5.880439 -8.481857 -5.340060 0.000000 0.000000 0.000000 1.257856 -4.668656 -20.640421 6.422855 -0.186102 -4.215199 -1.341942 2.828145 4.302710 0.000000 0.000000 0.000000 11.418776 -6.248654 22.398070 -3.516346 0.220170 -3.380749 0.077055 7.601057 -4.164729 0.000000 0.000000 0.000000 6.161476 -3.005861 13.410381 -2.897205 0.237547 -3.394463 4.561347 5.533493 4.878554 0.000000 0.000000 0.000000 -9.631898 4.706434 -3.477836 0.000000 0.000000 0.000000 13.306951 -6.772925 -1.918165 -13.965313 0.343827 -5.362419 0.184202 -0.475194 -2.743300 0.000000 0.000000 0.000000 -25.750657 20.703823 -12.286881 15.981474 -0.663970 4.281310 -1.723691 1.901037 -9.792950 
-0.073673 0.920921 1.656651 -5.743280 -7.281340 -5.001427 0.000000 0.000000 0.000000 0.566028 -5.401884 -23.429965 4.441988 -0.162075 -3.223980 0.157147 8.026907 5.078139 0.000000 0.000000 0.000000 10.392493 -6.687117 24.877339 -3.461088 0.640753 1.173865 -0.799961 7.782895 -6.018864 0.000000 0.000000 0.000000 4.970629 -2.587963 12.819671 -1.807512 0.061565 -3.962531 4.599507 5.640258 4.881325 0.000000 0.000000 0.000000 -9.498292 4.629457 -3.634846 0.000000 0.000000 0.000000 13.362258 -6.915965 -1.942481 -14.279496 0.341282 -5.390860 0.332890 0.016737 -0.635891 0.000000 0.000000 0.000000 -24.836072 19.572098 -11.338379 16.178614 -0.566672 3.897106 -2.622393 1.231376 -9.412467 
-0.079464 0.911409 1.749028 -5.265549 -5.699373 -5.897852 0.000000 0.000000 0.000000 -1.500524 -6.204627 -25.164954 2.486174 -0.536922 7.628349 0.982764 6.826936 2.515767 0.000000 0.000000 0.000000 9.456267 -7.041080 26.995011 -3.529548 1.457174 9.239833 0.301705 6.983863 -3.504417 0.000000 0.000000 0.000000 3.335167 -1.952425 11.505162 -1.061419 0.008366 -3.109552 4.698074 6.318102 5.164593 0.000000 0.000000 0.000000 -8.650779 4.230093 -3.657544 0.000000 0.000000 0.000000 13.706898 -6.802551 -1.684850 -14.246303 0.300059 -5.469668 0.014590 0.058538 0.258741 0.000000 0.000000 0.000000 -23.753837 18.892523 -10.932626 17.372504 -1.331112 6.463211 -4.090327 0.410305 -9.727739 
-0.082330 0.906453 1.846826 -4.551418 -5.477029 -6.048439 0.000000 0.000000 0.000000 -3.715886 -6.872871 -26.231758 3.061727 -1.057835 17.560397 -2.314816 3.600675 6.452458 0.000000 0.000000 0.000000 6.167834 -5.005407 21.995041 1.385894 1.461410 26.790187 5.428983 3.472549 8.924779 0.000000 0.000000 0.000000 2.502921 -1.593552 10.535102 -1.023916 -0.015140 -3.475136 4.167971 7.026519 4.869792 0.000000 0.000000 0.000000 -8.070096 3.995492 -2.842500 0.000000 0.000000 0.000000 12.469924 -4.856615 -0.510138 -11.980705 0.399848 -4.186267 -0.909336 -0.440504 -0.228983 0.000000 0.000000 0.000000 -22.873693 18.817773 -10.929023 18.073208 -2.163382 9.209809 -3.773002 0.237483 -8.352490 
-0.083594 0.907838 1.935574 -2.904437 -4.981566 -7.621111 0.000000 0.000000 0.000000 -5.222531 -7.484333 -27.220425 0.562196 -0.680965 30.757379 -1.028724 5.180356 5.149037 0.000000 0.000000 0.000000 2.447117 -2.700742 14.276793 6.406805 -0.022867 44.424316 9.288525 -6.217309 25.912469 0.000000 0.000000 0.000000 1.766810 -1.448800 11.447596 -1.613851 0.126829 -2.311265 3.398831 7.451306 5.084451 0.000000 0.000000 0.000000 -7.976407 3.946807 -2.995936 0.000000 0.000000 0.000000 12.393626 -5.432717 -0.846841 -11.168288 0.194720 -4.973716 0.509601 0.450657 1.179933 0.000000 0.000000 0.000000 -22.898471 19.646395 -11.752277 18.530696 -2.337543 9.648792 -4.456138 -0.777975 -5.983137 
-0.082171 0.914709 2.010292 -0.672769 -4.752834 -7.783860 0.000000 0.000000 0.000000 -8.329525 -6.043308 -20.643338 -0.491544 -0.262866 28.426079 1.902000 4.848875 -0.592285 0.000000 0.000000 0.000000 -1.287688 -0.204116 1.715492 11.155405 -2.990260 59.150263 -0.040187 -21.633069 25.941214 0.000000 0.000000 0.000000 0.960715 -1.284724 12.597476 -2.420251 0.205028 -2.874848 3.259295 6.795208 5.836940 0.000000 0.000000 0.000000 -7.692380 3.796581 -3.545893 0.000000 0.000000 0.000000 12.087431 -7.096883 -2.035840 -9.899383 0.125915 -5.064118 0.369620 0.649644 2.495403 0.000000 0.000000 0.000000 -22.313440 20.772623 -12.607649 16.251960 -1.913388 8.573727 -3.756830 -1.024583 -3.486050 
-0.081178 0.933085 2.080821 -0.925188 -4.129395 -6.401659 0.000000 0.000000 0.000000 -9.647020 -4.491741 -15.448782 1.251371 -0.823138 25.268943 2.138908 2.736099 -2.329066 0.000000 0.000000 0.000000 -0.883499 1.793123 -10.977930 12.013911 -4.013299 63.183960 -5.915513 -28.691727 21.366782 0.000000 0.000000 0.000000 3.081890 -2.021913 12.847245 -2.713267 0.198159 -3.579754 2.798949 5.622162 5.583529 0.000000 0.000000 0.000000 -7.659139 3.850748 -2.055835 0.000000 0.000000 0.000000 12.260450 -8.053051 -2.692423 -10.517339 0.287952 -4.386518 0.235527 0.462215 1.819918 0.000000 0.000000 0.000000 -22.345019 19.623993 -11.540981 15.514786 -1.448249 7.035978 -3.820919 -0.869022 -4.231081 
-0.083437 0.954941 2.150948 -1.588393 -3.732960 -5.968413 0.000000 0.000000 0.000000 -10.072702 -1.550098 -6.590982 3.479643 -1.154752 17.071006 1.117158 -0.773412 -2.429385 0.000000 0.000000 0.000000 0.660710 3.366139 -19.186115 8.616347 -1.401854 57.715906 -4.047113 -23.534981 15.957464 0.000000 0.000000 0.000000 4.384059 -2.614726 14.041635 -2.611399 0.163156 -3.904166 3.030388 4.520806 4.997414 0.000000 0.000000 0.000000 -7.460595 3.798391 -1.002723 0.000000 0.000000 0.000000 13.704564 -8.836265 -3.108254 -12.401478 0.535977 -3.766953 -0.425556 -0.322717 -0.672735 0.000000 0.000000 0.000000 -22.754054 18.210974 -10.250147 15.818955 -1.258870 6.377006 -4.737168 -0.517234 -7.661790 
-0.087245 0.966469 2.222384 -2.831568 -2.942927 -5.390407 0.000000 0.000000 0.000000 -9.464347 1.017776 1.064167 5.525288 -1.171513 10.215128 -0.039669 -3.671405 -1.911474 0.000000 0.000000 0.000000 2.899250 4.560678 -23.638523 2.983022 1.650972 43.855953 -1.065244 -15.788461 12.657327 0.000000 0.000000 0.000000 5.381402 -3.079778 14.618948 -1.968395 0.065138 -4.148588 3.474728 3.546363 4.605659 0.000000 0.000000 0.000000 -6.654815 3.432713 0.011895 0.000000 0.000000 0.000000 15.477404 -9.212450 -3.210744 -13.897107 0.489994 -4.506035 -1.715449 -1.369849 -2.824856 0.000000 0.000000 0.000000 -23.045508 15.942227 -8.266920 15.948824 -0.942243 5.249920 -5.198543 0.162172 -11.423204 
-0.092918 0.963999 2.295346 -3.455860 -1.882364 -5.015155 0.000000 0.000000 0.000000 -8.407152 3.238391 8.085327 6.163686 -0.832766 4.420789 -1.010148 -6.290637 -1.572936 0.000000 0.000000 0.000000 3.859859 5.000734 -25.091402 -1.716488 2.304800 24.451462 0.300373 -13.877344 14.075195 0.000000 0.000000 0.000000 5.435466 -3.114216 14.353911 -1.473315 0.051226 -3.271184 3.827328 2.737677 4.467774 0.000000 0.000000 0.000000 -5.643904 2.919062 0.227307 0.000000 0.000000 0.000000 17.244558 -10.031346 -3.634972 -14.375601 0.117836 -6.415735 -2.149839 -1.965999 -4.524519 0.000000 0.000000 0.000000 -22.876033 14.197052 -6.782728 16.388457 -0.666609 4.236126 -6.541307 0.155688 -14.868022 
-0.097540 0.949588 2.368267 -2.683450 -0.419135 -4.509545 0.000000 0.000000 0.000000 -8.210126 4.748535 12.796759 6.448016 -0.716955 2.634456 -1.092837 -8.879337 -2.627192 0.000000 0.000000 0.000000 2.642587 4.563422 -24.327994 -4.524266 1.156792 4.354091 1.376331 -10.060632 12.453611 0.000000 0.000000 0.000000 4.749408 -2.936865 14.396668 -1.662652 0.075315 -3.274986 3.934115 2.163746 4.283479 0.000000 0.000000 0.000000 -5.291287 2.749252 0.802568 0.000000 0.000000 0.000000 18.863357 -11.747680 -4.752591 -14.029849 -0.199958 -7.829549 -1.975706 -2.016134 -5.106248 0.000000 0.000000 0.000000 -22.825884 13.245986 -6.036751 17.532887 -0.729553 4.423779 -7.882960 -0.286510 -16.835405 
-0.102316 0.928723 2.441729 -1.256140 0.512458 -3.774717 0.000000 0.000000 0.000000 -8.092000 5.798700 16.073612 5.874292 -0.764481 4.050994 0.247576 -10.615740 -5.474522 0.000000 0.000000 0.000000 0.604550 4.324064 -25.242947 -5.003334 0.109060 -6.502300 2.270216 -6.686773 11.167395 0.000000 0.000000 0.000000 3.861728 -2.503980 13.253438 -1.853678 0.140707 -2.623003 3.798168 2.018164 4.324222 0.000000 0.000000 0.000000 -5.315987 2.757312 0.699002 0.000000 0.000000 0.000000 19.143052 -13.131492 -5.759626 -12.633286 -0.649672 -9.849489 -1.794099 -1.577720 -3.577092 0.000000 0.000000 0.000000 -22.323013 13.082505 -5.975459 17.594511 -0.875138 4.905291 -8.415521 -0.862323 -15.952367 
-0.109702 0.911008 2.519434 -1.727210 0.530026 -3.691488 0.000000 0.000000 0.000000 -6.002381 6.409476 19.604552 5.640328 -0.976337 7.222948 0.800909 -12.274689 -7.004760 0.000000 0.000000 0.000000 1.143057 4.827904 -27.479986 -3.161183 0.140062 -4.065126 1.338603 -9.306618 11.621020 0.000000 0.000000 0.000000 4.855603 -2.774451 12.768983 -2.027930 0.194998 -2.152232 3.901541 2.439538 4.106509 0.000000 0.000000 0.000000 -5.414299 2.808000 0.901357 0.000000 0.000000 0.000000 18.582692 -12.908546 -5.575592 -12.595631 -1.059915 -11.867389 -0.759802 -0.598046 -1.280286 0.000000 0.000000 0.000000 -22.332694 13.672379 -6.522698 17.166146 -1.004849 5.391348 -7.609883 -1.319784 -11.607466 
-0.118803 0.898601 2.605364 -2.267361 -0.236865 -4.151882 0.000000 0.000000 0.000000 -4.397753 6.784025 22.178470 5.630634 -1.471390 13.765872 -0.071304 -12.290021 -5.678441 0.000000 0.000000 0.000000 3.456972 5.579534 -28.633101 -1.496129 0.625615 5.233526 0.928736 -11.415197 12.900793 0.000000 0.000000 0.000000 5.904552 -3.025508 12.294355 -2.092556 0.223277 -1.854128 3.798948 2.521910 3.982929 0.000000 0.000000 0.000000 -5.383764 2.798866 1.115555 0.000000 0.000000 0.000000 17.769379 -12.146436 -5.092137 -13.190297 -0.812143 -10.636283 0.084285 -0.241353 -1.371027 0.000000 0.000000 0.000000 -22.032604 14.499718 -7.162703 16.779771 -1.196787 6.119497 -6.382549 -1.898465 -5.853551 
